<svg xmlns="http://www.w3.org/2000/svg" viewBox="0 0 512 512">
  <defs>
    <linearGradient id="bg" x1="0" y1="0" x2="0" y2="1">
      <stop offset="0" stop-color="#161a52"/><stop offset="1" stop-color="#070a1f"/>
    </linearGradient>
    <linearGradient id="a" x1="0" y1="0" x2="0" y2="1">
      <stop offset="0" stop-color="#ff7b96"/><stop offset="1" stop-color="#f5365c"/>
    </linearGradient>
    <linearGradient id="b" x1="0" y1="0" x2="0" y2="1">
      <stop offset="0" stop-color="#7ceeff"/><stop offset="1" stop-color="#22d3ee"/>
    </linearGradient>
    <linearGradient id="c" x1="0" y1="0" x2="0" y2="1">
      <stop offset="0" stop-color="#ffd57a"/><stop offset="1" stop-color="#ffb020"/>
    </linearGradient>
  </defs>
  <rect width="512" height="512" rx="112" fill="url(#bg)"/>
  <g stroke="#8fb8de" stroke-width="9" stroke-opacity=".55">
    <path d="M126 150h52v34l14 18v150a20 20 0 0 1-20 20h-40a20 20 0 0 1-20-20V202l14-18z" fill="url(#a)"/>
    <path d="M230 150h52v34l14 18v150a20 20 0 0 1-20 20h-40a20 20 0 0 1-20-20V202l14-18z" fill="url(#b)"/>
    <path d="M334 150h52v34l14 18v150a20 20 0 0 1-20 20h-40a20 20 0 0 1-20-20V202l14-18z" fill="url(#c)"/>
  </g>
</svg>
